<svg width="132" height="49" viewBox="0 0 132 49" fill="none" xmlns="http://www.w3.org/2000/svg">
<path d="M33.6 3.8502C36.75 5.2502 39.18 7.2602 40.89 9.8902C42.6 12.5202 43.45 15.5802 43.45 19.0802C43.45 22.5802 42.6 25.6502 40.89 28.2702C39.18 30.9002 36.75 32.9102 33.6 34.3102C30.45 35.7102 26.75 36.4102 22.5 36.4102H15.87V47.7002H0.369995V1.7502H22.5C26.74 1.7502 30.44 2.4502 33.6 3.8502ZM26.24 23.0602C27.29 22.1202 27.82 20.7902 27.82 19.0902C27.82 17.3802 27.29 16.0602 26.24 15.1202C25.19 14.1802 23.61 13.7102 21.51 13.7102H15.86V24.4802H21.51C23.61 24.4702 25.19 24.0002 26.24 23.0602ZM86.72 36.0302V47.7202H48.5V1.7502H85.86V13.4402H63.73V18.8202H83.17V29.9802H63.73V36.0202H86.72V36.0302ZM98.7 47.4902C95.09 46.6402 92.12 45.4902 89.8 44.0402L94.79 32.7502C96.98 34.0202 99.43 35.0402 102.14 35.8002C104.85 36.5702 107.46 36.9502 109.95 36.9502C112.09 36.9502 113.63 36.7402 114.55 36.3302C115.47 35.9102 115.93 35.2902 115.93 34.4602C115.93 33.5002 115.33 32.7802 114.12 32.2902C112.92 31.8102 110.94 31.2802 108.18 30.7102C104.63 29.9702 101.68 29.1702 99.32 28.3102C96.96 27.4602 94.9 26.0602 93.15 24.1102C91.4 22.1602 90.52 19.5202 90.52 16.2002C90.52 13.3102 91.33 10.6802 92.95 8.3202C94.57 5.9602 96.99 4.1002 100.21 2.7402C103.43 1.3802 107.33 0.700195 111.93 0.700195C115.08 0.700195 118.18 1.0402 121.22 1.7202C124.26 2.4002 126.94 3.3902 129.26 4.7102L124.6 15.9402C120.09 13.6602 115.82 12.5302 111.8 12.5302C107.82 12.5302 105.82 13.4902 105.82 15.4202C105.82 16.3402 106.41 17.0302 107.59 17.4902C108.77 17.9502 110.72 18.4402 113.43 18.9702C116.93 19.6302 119.89 20.3802 122.29 21.2402C124.7 22.0902 126.79 23.4802 128.56 25.4102C130.33 27.3402 131.22 29.9602 131.22 33.2902C131.22 36.1802 130.41 38.8002 128.79 41.1402C127.17 43.4802 124.75 45.3402 121.53 46.7202C118.31 48.1002 114.41 48.7902 109.81 48.7902C106.02 48.7702 102.31 48.3402 98.7 47.4902Z" fill="#2556A2"/>
</svg>
